<svg width="74" height="57" viewBox="0 0 74 57" fill="none" xmlns="http://www.w3.org/2000/svg">
<mask id="path-1-outside-1_55_175" maskUnits="userSpaceOnUse" x="-0.990234" y="-0.98999" width="75" height="57" fill="black">
<rect fill="white" x="-0.990234" y="-0.98999" width="75" height="57"/>
<path d="M53.6944 4.47181C58.3661 1.47618 64.8363 3.23188 68.1456 8.39271C71.4098 13.4837 70.3773 19.9836 65.8643 23.0343C66.4981 24.9593 66.8503 26.9422 66.88 28.9425C68.0867 30.9315 68.7344 33.1118 68.7344 35.4337C68.7342 45.992 55.3572 53.0099 36.795 53.0099C18.2329 53.0098 5.52275 45.9919 5.52253 35.4337C5.52253 33.269 6.05708 31.227 7.06647 29.3488C7.06615 29.3047 7.06452 29.2604 7.06452 29.216C7.06452 27.1224 7.42202 25.0455 8.08503 23.0324C6.63988 22.2952 5.38667 21.2032 4.47175 19.7765C1.47616 15.1049 3.23105 8.63465 8.39167 5.32533C13.237 2.21839 19.3615 3.00215 22.5714 6.97572C26.9364 4.70633 31.8895 3.36442 36.9747 3.36439C41.9803 3.36439 46.8571 4.66692 51.1719 6.8722C51.8401 5.93704 52.6839 5.11984 53.6944 4.47181Z"/>
</mask>
<path d="M53.6944 4.47181C58.3661 1.47618 64.8363 3.23188 68.1456 8.39271C71.4098 13.4837 70.3773 19.9836 65.8643 23.0343C66.4981 24.9593 66.8503 26.9422 66.88 28.9425C68.0867 30.9315 68.7344 33.1118 68.7344 35.4337C68.7342 45.992 55.3572 53.0099 36.795 53.0099C18.2329 53.0098 5.52275 45.9919 5.52253 35.4337C5.52253 33.269 6.05708 31.227 7.06647 29.3488C7.06615 29.3047 7.06452 29.2604 7.06452 29.216C7.06452 27.1224 7.42202 25.0455 8.08503 23.0324C6.63988 22.2952 5.38667 21.2032 4.47175 19.7765C1.47616 15.1049 3.23105 8.63465 8.39167 5.32533C13.237 2.21839 19.3615 3.00215 22.5714 6.97572C26.9364 4.70633 31.8895 3.36442 36.9747 3.36439C41.9803 3.36439 46.8571 4.66692 51.1719 6.8722C51.8401 5.93704 52.6839 5.11984 53.6944 4.47181Z" fill="white"/>
<path d="M53.6944 4.47181L52.075 1.94641L52.075 1.94645L53.6944 4.47181ZM68.1456 8.39271L70.671 6.77343L70.671 6.77335L68.1456 8.39271ZM65.8643 23.0343L64.1842 20.5489L62.3057 21.8187L63.0148 23.9725L65.8643 23.0343ZM66.88 28.9425L63.8803 28.987L63.8924 29.8019L64.3151 30.4986L66.88 28.9425ZM68.7344 35.4337L71.7344 35.4338V35.4337H68.7344ZM36.795 53.0099L36.795 56.0099H36.795V53.0099ZM5.52253 35.4337H2.52253V35.4338L5.52253 35.4337ZM7.06647 29.3488L9.70905 30.7689L10.072 30.0935L10.0664 29.3268L7.06647 29.3488ZM7.06452 29.216H4.06452V29.216L7.06452 29.216ZM8.08503 23.0324L10.9345 23.9708L11.7388 21.5284L9.44818 20.3599L8.08503 23.0324ZM4.47175 19.7765L1.94634 21.3959L1.94642 21.396L4.47175 19.7765ZM8.39167 5.32533L6.77231 2.79992L6.77224 2.79997L8.39167 5.32533ZM22.5714 6.97572L20.2377 8.8609L21.779 10.7689L23.9552 9.63748L22.5714 6.97572ZM36.9747 3.36439V0.364392H36.9747L36.9747 3.36439ZM51.1719 6.8722L49.8066 9.54352L52.1095 10.7205L53.6129 8.61619L51.1719 6.8722ZM53.6944 4.47181L55.3138 6.99722C58.3599 5.04396 63.0497 6.00335 65.6202 10.0121L68.1456 8.39271L70.671 6.77335C66.623 0.460412 58.3724 -2.09161 52.075 1.94641L53.6944 4.47181ZM68.1456 8.39271L65.6201 10.012C68.1525 13.9616 67.133 18.5556 64.1842 20.5489L65.8643 23.0343L67.5444 25.5197C73.6217 21.4116 74.6671 13.0057 70.671 6.77343L68.1456 8.39271ZM65.8643 23.0343L63.0148 23.9725C63.5602 25.6292 63.8554 27.3111 63.8803 28.987L66.88 28.9425L69.8796 28.898C69.8451 26.5733 69.436 24.2894 68.7139 22.0961L65.8643 23.0343ZM66.88 28.9425L64.3151 30.4986C65.2553 32.0483 65.7344 33.6943 65.7344 35.4337H68.7344H71.7344C71.7344 32.5292 70.9181 29.8148 69.4448 27.3864L66.88 28.9425ZM68.7344 35.4337L65.7344 35.4337C65.7344 39.2352 63.3768 42.7862 58.2945 45.5445C53.1992 48.3098 45.7486 50.0099 36.795 50.0099V53.0099V56.0099C46.4036 56.0099 54.9226 54.2011 61.1565 50.8179C67.4033 47.4276 71.7343 42.1905 71.7344 35.4338L68.7344 35.4337ZM36.795 53.0099L36.795 50.0099C27.8401 50.0099 20.574 48.3092 15.6622 45.5627C10.7923 42.8395 8.52261 39.303 8.52253 35.4337L5.52253 35.4337L2.52253 35.4338C2.52267 42.1227 6.60821 47.3742 12.7339 50.7996C18.8177 54.2015 27.1878 56.0099 36.795 56.0099L36.795 53.0099ZM5.52253 35.4337H8.52253C8.52253 33.7803 8.92675 32.2246 9.70905 30.7689L7.06647 29.3488L4.4239 27.9286C3.1874 30.2295 2.52253 32.7577 2.52253 35.4337H5.52253ZM7.06647 29.3488L10.0664 29.3268C10.0662 29.3014 10.0659 29.2789 10.0655 29.2618C10.0653 29.2462 10.0649 29.2291 10.0648 29.2218C10.0643 29.2001 10.0645 29.2048 10.0645 29.2159L7.06452 29.216L4.06452 29.216C4.06452 29.2716 4.06553 29.3207 4.06599 29.3432C4.06662 29.3745 4.06657 29.3729 4.06655 29.3707L7.06647 29.3488ZM7.06452 29.216H10.0645C10.0645 27.466 10.3632 25.7056 10.9345 23.9708L8.08503 23.0324L5.23558 22.0939C4.48088 24.3855 4.06452 26.7789 4.06452 29.216H7.06452ZM8.08503 23.0324L9.44818 20.3599C8.45097 19.8513 7.60948 19.112 6.99707 18.157L4.47175 19.7765L1.94642 21.396C3.16386 23.2944 4.8288 24.7392 6.72188 25.7048L8.08503 23.0324ZM4.47175 19.7765L6.99715 18.1571C5.04374 15.1108 6.00288 10.421 10.0111 7.85069L8.39167 5.32533L6.77224 2.79997C0.45923 6.84828 -2.09141 15.099 1.94634 21.3959L4.47175 19.7765ZM8.39167 5.32533L10.011 7.85074C13.759 5.44746 18.1253 6.24601 20.2377 8.8609L22.5714 6.97572L24.905 5.09054C20.5976 -0.241716 12.715 -1.01067 6.77231 2.79992L8.39167 5.32533ZM22.5714 6.97572L23.9552 9.63748C27.9331 7.56935 32.4148 6.36441 36.9747 6.36439L36.9747 3.36439L36.9747 0.364392C31.3643 0.364419 25.9396 1.84331 21.1875 4.31396L22.5714 6.97572ZM36.9747 3.36439V6.36439C41.4622 6.36439 45.8741 7.5336 49.8066 9.54352L51.1719 6.8722L52.5372 4.20089C47.8402 1.80024 42.4985 0.364392 36.9747 0.364392V3.36439ZM51.1719 6.8722L53.6129 8.61619C54.0653 7.983 54.6328 7.43387 55.3138 6.99718L53.6944 4.47181L52.075 1.94645C50.7349 2.8058 49.6148 3.89108 48.7309 5.12822L51.1719 6.8722Z" fill="#443D3F" mask="url(#path-1-outside-1_55_175)"/>
<path d="M11.2666 10.7651C12.9933 9.28501 16.5086 9.22333 17.4336 10.4567C18.3587 11.6902 11.575 19.3991 10.0332 17.2405C8.4914 15.082 9.10813 12.6152 11.2666 10.7651Z" fill="#443D3F"/>
<path d="M62.5396 10.7651C60.8128 9.28501 57.2976 9.22333 56.3725 10.4567C55.4475 11.6902 62.2312 19.3991 63.773 17.2405C65.3148 15.082 64.698 12.6152 62.5396 10.7651Z" fill="#443D3F"/>
<path d="M31.6048 33.1725L33.153 34.602C33.9271 35.3168 34.3915 36.0315 36.2494 36.0315C38.5717 36.0315 37.7976 36.0315 40.1198 33.8873C41.9777 32.1719 40.6359 31.0283 39.3458 31.0283H33.153C30.8308 31.0283 30.5727 32.4578 31.6048 33.1725Z" fill="#443D3F" stroke="#443D3F"/>
<circle cx="25.0099" cy="28.0101" r="2.0001" fill="#443D3F" stroke="#443D3F"/>
<circle cx="49.0113" cy="28.0101" r="2.0001" fill="#443D3F" stroke="#443D3F"/>
</svg>
