<svg width="76" height="59" viewBox="0 0 76 59" fill="none" xmlns="http://www.w3.org/2000/svg">
<mask id="path-1-outside-1_43_16" maskUnits="userSpaceOnUse" x="-0.986816" y="-0.986816" width="77" height="59" fill="black">
<rect fill="white" x="-0.986816" y="-0.986816" width="77" height="59"/>
<path d="M54.6975 5.47517C59.3691 2.47958 65.8393 4.23447 69.1487 9.39509C72.4131 14.486 71.3803 20.9859 66.8674 24.0367C67.5011 25.961 67.8531 27.9433 67.883 29.9429C69.0905 31.9324 69.7375 34.1135 69.7375 36.4361C69.7375 46.9945 56.3612 54.0132 37.7991 54.0133C19.2367 54.0133 6.52561 46.9945 6.52561 36.4361C6.52564 34.272 7.06064 32.231 8.06956 30.3531C8.06923 30.3087 8.06761 30.2641 8.06761 30.2193C8.06761 28.1259 8.42516 26.0488 9.08811 24.0357C7.6429 23.2985 6.38974 22.2057 5.47483 20.7789C2.47949 16.1072 4.23502 9.63788 9.39573 6.32868C14.2412 3.22173 20.3647 4.00606 23.5744 7.98005C27.9396 5.71049 32.8924 4.3678 37.9778 4.36775C42.9836 4.36775 47.8611 5.66919 52.176 7.87458C52.844 6.93985 53.6874 6.12296 54.6975 5.47517Z"/>
</mask>
<path fill-rule="evenodd" clip-rule="evenodd" d="M54.6975 5.47517L52.5383 2.10796L52.5382 2.10806L54.6975 5.47517ZM69.1487 9.39509L72.5159 7.23594L72.5158 7.23586L69.1487 9.39509ZM66.8674 24.0367L64.6272 20.7229L62.1225 22.4161L63.0681 25.2877L66.8674 24.0367ZM67.883 29.9429L63.8835 30.0028L63.8998 31.0894L64.4635 32.0183L67.883 29.9429ZM69.7375 36.4361H73.7375V36.4361L69.7375 36.4361ZM37.799 54.0133V58.0133H37.7991L37.799 54.0133ZM6.52561 36.4361L2.52561 36.4361V36.4361H6.52561ZM8.06956 30.3531L11.5932 32.2462L12.077 31.3458L12.0695 30.3236L8.06956 30.3531ZM8.06761 30.2193H4.06761V30.2194L8.06761 30.2193ZM9.08811 24.0357L12.8874 25.2869L13.9598 22.0304L10.9057 20.4725L9.08811 24.0357ZM5.47483 20.7789L2.10753 22.9379L2.10762 22.938L5.47483 20.7789ZM9.39573 6.32868L7.23664 2.96144L7.23658 2.96148L9.39573 6.32868ZM23.5744 7.98005L20.4627 10.4934L22.5178 13.0378L25.4197 11.529L23.5744 7.98005ZM37.9778 4.36775V0.367747H37.9777L37.9778 4.36775ZM52.176 7.87458L50.3556 11.4363L53.4257 13.0055L55.4304 10.2003L52.176 7.87458ZM54.6975 5.47517L56.8566 8.84238C59.3613 7.23635 63.4575 7.93024 65.7815 11.5543L69.1487 9.39509L72.5158 7.23586C68.2212 0.538696 59.377 -2.27718 52.5383 2.10796L54.6975 5.47517ZM69.1487 9.39509L65.7815 11.5542C68.0698 15.123 67.0547 19.0818 64.6272 20.7229L66.8674 24.0367L69.1076 27.3505C75.7059 22.8899 76.7563 13.8489 72.5159 7.23594L69.1487 9.39509ZM66.8674 24.0367L63.0681 25.2877C63.5839 26.8542 63.86 28.4353 63.8835 30.0028L67.883 29.9429L71.8826 29.8831C71.8462 27.4513 71.4182 25.0679 70.6667 22.7856L66.8674 24.0367ZM67.883 29.9429L64.4635 32.0183C65.3146 33.4206 65.7375 34.8891 65.7375 36.4362L69.7375 36.4361L73.7375 36.4361C73.7375 33.3378 72.8663 30.4442 71.3025 27.8676L67.883 29.9429ZM69.7375 36.4361H65.7375C65.7375 39.7453 63.7089 43.0154 58.821 45.6685C53.9156 48.331 46.6434 50.0132 37.799 50.0133L37.799 54.0133L37.7991 58.0133C47.5168 58.0132 56.2139 56.186 62.6373 52.6996C69.078 49.2037 73.7375 43.6853 73.7375 36.4361H69.7375ZM37.799 54.0133V50.0133C28.9528 50.0133 21.8704 48.3304 17.1537 45.6929C12.4927 43.0865 10.5256 39.8355 10.5256 36.4361H6.52561H2.52561C2.52561 43.5951 6.91403 49.1327 13.2492 52.6753C19.5286 56.1867 28.0829 58.0133 37.799 58.0133V54.0133ZM6.52561 36.4361L10.5256 36.4361C10.5256 34.9546 10.8864 33.5617 11.5932 32.2462L8.06956 30.3531L4.54592 28.46C3.23483 30.9002 2.52564 33.5894 2.52561 36.4361L6.52561 36.4361ZM8.06956 30.3531L12.0695 30.3236C12.0692 30.2936 12.0688 30.2674 12.0685 30.2484C12.0682 30.2314 12.0678 30.2123 12.0677 30.2062C12.0675 30.1966 12.0675 30.1952 12.0675 30.1965C12.0675 30.1983 12.0676 30.2067 12.0676 30.2192L8.06761 30.2193L4.06761 30.2194C4.06761 30.2858 4.0688 30.3436 4.06926 30.3666C4.06959 30.3828 4.06966 30.3859 4.06975 30.3911C4.06981 30.3944 4.06973 30.3904 4.06967 30.3826L8.06956 30.3531ZM8.06761 30.2193H12.0676C12.0676 28.584 12.3467 26.9289 12.8874 25.2869L9.08811 24.0357L5.28883 22.7845C4.50365 25.1688 4.06761 27.6678 4.06761 30.2193H8.06761ZM9.08811 24.0357L10.9057 20.4725C10.0586 20.0404 9.3541 19.4183 8.84204 18.6197L5.47483 20.7789L2.10762 22.938C3.42538 24.9931 5.22716 26.5566 7.27052 27.5989L9.08811 24.0357ZM5.47483 20.7789L8.84213 18.6199C7.23647 16.1156 7.9303 12.0201 11.5549 9.69589L9.39573 6.32868L7.23658 2.96148C0.539735 7.25568 -2.2775 16.0988 2.10753 22.9379L5.47483 20.7789ZM9.39573 6.32868L11.5548 9.69593C14.9368 7.52738 18.7161 8.33094 20.4627 10.4934L23.5744 7.98005L26.6862 5.46672C22.0133 -0.318827 13.5456 -1.08391 7.23664 2.96144L9.39573 6.32868ZM23.5744 7.98005L25.4197 11.529C29.269 9.52763 33.5932 8.36779 37.9778 8.36775L37.9778 4.36775L37.9777 0.367747C32.1917 0.367806 26.6101 1.89334 21.7292 4.43108L23.5744 7.98005ZM37.9778 4.36775V8.36775C42.2934 8.36775 46.551 9.49176 50.3556 11.4363L52.176 7.87458L53.9965 4.31285C49.1712 1.84662 43.6737 0.367747 37.9778 0.367747V4.36775ZM52.176 7.87458L55.4304 10.2003C55.811 9.66773 56.2862 9.20821 56.8568 8.84228L54.6975 5.47517L52.5382 2.10806C51.0885 3.03771 49.877 4.21197 48.9216 5.54887L52.176 7.87458Z" fill="black" mask="url(#path-1-outside-1_43_16)"/>
<path d="M12.2695 11.768C13.9963 10.2879 17.5115 10.2263 18.4365 11.4597C19.3616 12.6931 12.5779 20.402 11.0361 18.2435C9.49433 16.0849 10.1111 13.6182 12.2695 11.768Z" fill="black"/>
<path d="M63.5425 11.768C61.8157 10.2879 58.3005 10.2263 57.3755 11.4597C56.4504 12.6931 63.2341 20.402 64.7759 18.2435C66.3177 16.0849 65.7009 13.6182 63.5425 11.768Z" fill="black"/>
<path d="M32.9503 34.0795L34.477 35.4891C35.2403 36.1939 35.6983 36.8987 37.5303 36.8987C39.8203 36.8987 39.0569 36.8987 41.3469 34.7843C43.1789 33.0928 41.8558 31.9651 40.5836 31.9651H34.4769C32.187 31.9651 31.9325 33.3747 32.9503 34.0795Z" fill="black" stroke="black"/>
<circle cx="26.0128" cy="29.0128" r="2.0001" fill="black" stroke="black"/>
<circle cx="50.0138" cy="29.0128" r="2.0001" fill="black" stroke="black"/>
</svg>
