<svg width="76" height="59" viewBox="0 0 76 59" fill="none" xmlns="http://www.w3.org/2000/svg">
<mask id="path-1-outside-1_43_2" maskUnits="userSpaceOnUse" x="-0.986816" y="-0.986816" width="77" height="59" fill="black">
<rect fill="white" x="-0.986816" y="-0.986816" width="77" height="59"/>
<path d="M54.6986 5.4748C59.3703 2.47951 65.8396 4.23501 69.1488 9.3957C72.4134 14.487 71.3803 20.9868 66.8666 24.0373C67.5004 25.9621 67.8534 27.9444 67.8832 29.9445C69.0901 31.9336 69.7386 34.1137 69.7387 36.4357C69.7387 46.9941 56.3614 54.0128 37.7992 54.0129C19.2368 54.0129 6.52675 46.9942 6.52675 36.4357C6.52682 34.2712 7.06135 32.2299 8.07069 30.3518C8.07037 30.3077 8.06874 30.2634 8.06874 30.2189C8.06874 28.1253 8.42618 26.0486 9.08925 24.0354C7.64383 23.2982 6.39001 22.2064 5.47499 20.7795C2.47935 16.1078 4.23505 9.63759 9.39589 6.32832C14.2413 3.22147 20.3648 4.00591 23.5746 7.97969C27.9397 5.71015 32.8926 4.36745 37.9779 4.36738C42.9838 4.36738 47.8612 5.66974 52.1762 7.87519C52.8443 6.94014 53.6881 6.12275 54.6986 5.4748Z"/>
</mask>
<path d="M54.6986 5.4748L52.5396 2.10749L52.5395 2.1076L54.6986 5.4748ZM69.1488 9.3957L72.5161 7.23661L72.516 7.23656L69.1488 9.3957ZM66.8666 24.0373L64.6268 20.7232L62.1216 22.4163L63.0672 25.2883L66.8666 24.0373ZM67.8832 29.9445L63.8836 30.0041L63.8998 31.0906L64.4635 32.0196L67.8832 29.9445ZM69.7387 36.4357H73.7387V36.4356L69.7387 36.4357ZM37.7992 54.0129V58.0129H37.7992L37.7992 54.0129ZM6.52675 36.4357L2.52675 36.4356V36.4357H6.52675ZM8.07069 30.3518L11.5941 32.2453L12.0781 31.3448L12.0706 30.3225L8.07069 30.3518ZM8.06874 30.2189H4.06874V30.2189H8.06874ZM9.08925 24.0354L12.8885 25.2866L13.9611 22.0299L10.9066 20.472L9.08925 24.0354ZM5.47499 20.7795L2.10778 22.9386L2.10781 22.9387L5.47499 20.7795ZM9.39589 6.32832L7.23681 2.96107L7.23674 2.96111L9.39589 6.32832ZM23.5746 7.97969L20.4629 10.4931L22.518 13.0374L25.4198 11.5287L23.5746 7.97969ZM37.9779 4.36738V0.367382H37.9779L37.9779 4.36738ZM52.1762 7.87519L50.3557 11.4369L53.426 13.0062L55.4307 10.2007L52.1762 7.87519ZM54.6986 5.4748L56.8576 8.84212C59.3619 7.23647 63.4575 7.93032 65.7816 11.5548L69.1488 9.3957L72.516 7.23656C68.2218 0.539701 59.3787 -2.27745 52.5396 2.10749L54.6986 5.4748ZM69.1488 9.3957L65.7816 11.5548C68.0701 15.1239 67.0547 19.0824 64.6268 20.7232L66.8666 24.0373L69.1064 27.3514C75.7059 22.8913 76.7566 13.85 72.5161 7.23661L69.1488 9.3957ZM66.8666 24.0373L63.0672 25.2883C63.5836 26.8566 63.8603 28.4376 63.8836 30.0041L67.8832 29.9445L71.8828 29.885C71.8465 27.4513 71.4171 25.0676 70.6659 22.7863L66.8666 24.0373ZM67.8832 29.9445L64.4635 32.0196C65.3154 33.4234 65.7386 34.8913 65.7387 36.4359L69.7387 36.4357L73.7387 36.4356C73.7385 33.3361 72.8649 30.4438 71.3029 27.8695L67.8832 29.9445ZM69.7387 36.4357H65.7387C65.7387 39.7448 63.7099 43.015 58.8217 45.6681C53.9161 48.3306 46.6436 50.0129 37.7992 50.0129L37.7992 54.0129L37.7992 58.0129C47.517 58.0128 56.2143 56.1857 62.6379 52.6992C69.0788 49.2034 73.7387 43.685 73.7387 36.4357H69.7387ZM37.7992 54.0129V50.0129C28.953 50.0129 21.8708 48.3301 17.1544 45.6925C12.4938 43.0862 10.5267 39.8353 10.5267 36.4357H6.52675H2.52675C2.52675 43.5946 6.91476 49.1323 13.2497 52.6749C19.5289 56.1864 28.083 58.0129 37.7992 58.0129V54.0129ZM6.52675 36.4357L10.5267 36.4359C10.5268 34.9532 10.8875 33.5602 11.5941 32.2453L8.07069 30.3518L4.54726 28.4582C3.23521 30.8997 2.52684 33.5892 2.52675 36.4356L6.52675 36.4357ZM8.07069 30.3518L12.0706 30.3225C12.0704 30.2923 12.0699 30.266 12.0696 30.2469C12.0693 30.2298 12.0689 30.2106 12.0688 30.2046C12.0686 30.195 12.0686 30.1939 12.0686 30.1953C12.0686 30.1974 12.0687 30.206 12.0687 30.2189H8.06874H4.06874C4.06874 30.2857 4.06995 30.3438 4.07041 30.3665C4.07074 30.3825 4.07081 30.3855 4.07089 30.3905C4.07095 30.3935 4.07086 30.3892 4.0708 30.381L8.07069 30.3518ZM8.06874 30.2189H12.0687C12.0687 28.5834 12.3477 26.9286 12.8885 25.2866L9.08925 24.0354L5.29 22.7841C4.50465 25.1686 4.06874 27.6673 4.06874 30.2189H8.06874ZM9.08925 24.0354L10.9066 20.472C10.0576 20.039 9.35324 19.4173 8.84217 18.6203L5.47499 20.7795L2.10781 22.9387C3.42679 24.9956 5.23008 26.5573 7.27188 27.5987L9.08925 24.0354ZM5.47499 20.7795L8.8422 18.6203C7.2364 16.1161 7.93034 12.0198 11.555 9.69553L9.39589 6.32832L7.23674 2.96111C0.539763 7.2554 -2.2777 16.0994 2.10778 22.9386L5.47499 20.7795ZM9.39589 6.32832L11.555 9.69557C14.9368 7.52717 18.7162 8.3307 20.4629 10.4931L23.5746 7.97969L26.6863 5.46625C22.0134 -0.318881 13.5458 -1.08423 7.23681 2.96107L9.39589 6.32832ZM23.5746 7.97969L25.4198 11.5287C29.2691 9.5273 33.5934 8.36744 37.978 8.36738L37.9779 4.36738L37.9779 0.367382C32.1919 0.367463 26.6103 1.893 21.7294 4.43072L23.5746 7.97969ZM37.9779 4.36738V8.36738C42.2931 8.36738 46.5506 9.49207 50.3557 11.4369L52.1762 7.87519L53.9966 4.31347C49.1718 1.84741 43.6745 0.367382 37.9779 0.367382V4.36738ZM52.1762 7.87519L55.4307 10.2007C55.8114 9.66795 56.2869 9.20804 56.8578 8.84201L54.6986 5.4748L52.5395 2.1076C51.0893 3.03746 49.8772 4.21234 48.9216 5.5497L52.1762 7.87519Z" fill="black" mask="url(#path-1-outside-1_43_2)"/>
<path d="M12.27 11.768C13.9968 10.2879 17.512 10.2263 18.437 11.4597C19.3621 12.6931 12.5784 20.402 11.0366 18.2435C9.49482 16.0849 10.1116 13.6182 12.27 11.768Z" fill="black"/>
<path d="M63.543 11.768C61.8162 10.2879 58.301 10.2263 57.376 11.4597C56.4509 12.6931 63.2346 20.402 64.7764 18.2435C66.3182 16.0849 65.7014 13.6182 63.543 11.768Z" fill="black"/>
<path d="M32.9508 34.0795L34.4775 35.4891C35.2408 36.1939 35.6988 36.8987 37.5308 36.8987C39.8207 36.8987 39.0574 36.8987 41.3474 34.7843C43.1794 33.0928 41.8563 31.9651 40.5841 31.9651H34.4774C32.1875 31.9651 31.933 33.3747 32.9508 34.0795Z" fill="black" stroke="black"/>
<ellipse cx="48.5895" cy="29.3112" rx="3.77135" ry="0.925051" transform="rotate(19.4072 48.5895 29.3112)" fill="black"/>
<ellipse cx="3.77135" cy="0.925051" rx="3.77135" ry="0.925051" transform="matrix(-0.943181 0.33228 0.33228 0.943181 30.2446 27.1855)" fill="black"/>
</svg>
