<svg width="87" height="69" viewBox="0 0 87 69" fill="none" xmlns="http://www.w3.org/2000/svg">
<mask id="path-1-outside-1_43_112" maskUnits="userSpaceOnUse" x="0" y="7.98169" width="72" height="61" fill="black">
<rect fill="white" y="7.98169" width="72" height="61"/>
<path d="M50.7471 14.3218C55.0296 11.5757 60.9604 13.1849 63.9941 17.9155C66.7474 22.2093 66.1673 27.5984 62.835 30.6108C64.4047 33.5952 65.3091 36.8003 65.3574 40.0513C66.5642 42.0403 67.2119 44.2205 67.2119 46.5425C67.2119 57.1009 53.8349 64.1196 35.2725 64.1196C16.7101 64.1196 4 57.1009 4 46.5425C4.00004 44.3777 4.53441 42.3359 5.54395 40.4575C5.54363 40.4138 5.54199 40.3699 5.54199 40.3257C5.54199 37.0391 6.42274 33.7937 7.98438 30.771C7.0612 30.142 6.25419 29.3338 5.62402 28.3511C2.8783 24.0685 4.48795 18.1375 9.21875 15.104C13.9192 12.0902 19.9306 13.0717 22.7012 17.2847C26.646 15.5043 30.9983 14.4741 35.4521 14.4741C39.8303 14.4742 44.1106 15.4688 48.002 17.1939C48.6668 16.0549 49.5863 15.0661 50.7471 14.3218Z"/>
</mask>
<path d="M50.7471 14.3218L48.5879 10.9546L48.5879 10.9546L50.7471 14.3218ZM63.9941 17.9155L67.3613 15.7564L67.3613 15.7563L63.9941 17.9155ZM62.835 30.6108L60.1525 27.6436L57.8496 29.7254L59.2948 32.4729L62.835 30.6108ZM65.3574 40.0513L61.3579 40.1108L61.374 41.1972L61.9377 42.1262L65.3574 40.0513ZM67.2119 46.5425H71.2119V46.5424L67.2119 46.5425ZM35.2725 64.1196L35.2725 68.1196H35.2725V64.1196ZM4 46.5425L0 46.5424V46.5425H4ZM5.54395 40.4575L9.0673 42.3512L9.55127 41.4507L9.54384 40.4284L5.54395 40.4575ZM5.54199 40.3257H1.54199V40.3257L5.54199 40.3257ZM7.98438 30.771L11.5381 32.607L13.1641 29.4598L10.2366 27.4653L7.98438 30.771ZM5.62402 28.3511L2.25668 30.51L2.25682 30.5102L5.62402 28.3511ZM9.21875 15.104L7.05974 11.7367L7.0596 11.7368L9.21875 15.104ZM22.7012 17.2847L19.3591 19.4825L21.2349 22.3349L24.3466 20.9306L22.7012 17.2847ZM35.4521 14.4741L35.4522 10.4741H35.4521V14.4741ZM48.002 17.1939L46.3809 20.8507L49.6525 22.3009L51.4565 19.2103L48.002 17.1939ZM50.7471 14.3218L52.9062 17.689C55.0214 16.3327 58.5784 16.8803 60.627 20.0748L63.9941 17.9155L67.3613 15.7563C63.3425 9.48941 55.0377 6.81878 48.5879 10.9546L50.7471 14.3218ZM63.9941 17.9155L60.6269 20.0747C62.4668 22.944 61.8468 26.112 60.1525 27.6436L62.835 30.6108L65.5174 33.5781C70.4878 29.0849 71.0281 21.4747 67.3613 15.7564L63.9941 17.9155ZM62.835 30.6108L59.2948 32.4729C60.6116 34.9764 61.3201 37.5685 61.3579 40.1108L65.3574 40.0513L69.357 39.9918C69.2981 36.0321 68.1978 32.214 66.3751 28.7488L62.835 30.6108ZM65.3574 40.0513L61.9377 42.1262C62.7889 43.5292 63.2119 44.9972 63.2119 46.5426L67.2119 46.5425L71.2119 46.5424C71.2119 43.4439 70.3395 40.5514 68.7772 37.9764L65.3574 40.0513ZM67.2119 46.5425H63.2119C63.2119 49.8516 61.1832 53.1218 56.295 55.7749C51.3894 58.4374 44.117 60.1196 35.2725 60.1196V64.1196V68.1196C44.9903 68.1196 53.6876 66.2925 60.1112 62.806C66.5521 59.3102 71.2119 53.7918 71.2119 46.5425H67.2119ZM35.2725 64.1196L35.2725 60.1196C26.4262 60.1196 19.3441 58.4368 14.6277 55.7993C9.96702 53.1929 8 49.942 8 46.5425H4H0C0 53.7014 4.38803 59.239 10.723 62.7817C17.0022 66.2931 25.5563 68.1196 35.2725 68.1196L35.2725 64.1196ZM4 46.5425L8 46.5426C8.00003 45.0593 8.36072 43.6658 9.0673 42.3512L5.54395 40.4575L2.02059 38.5639C0.708094 41.0059 5.24521e-05 43.6961 0 46.5424L4 46.5425ZM5.54395 40.4575L9.54384 40.4284C9.54362 40.398 9.5432 40.3716 9.54285 40.3524C9.54254 40.3353 9.54214 40.3161 9.54202 40.3101C9.54182 40.3007 9.54182 40.2996 9.54184 40.3013C9.54187 40.3035 9.54199 40.3124 9.54199 40.3256L5.54199 40.3257L1.54199 40.3257C1.54199 40.3927 1.54322 40.451 1.54368 40.4734C1.54401 40.4894 1.54407 40.4922 1.54416 40.4969C1.54421 40.4997 1.54411 40.4952 1.54405 40.4866L5.54395 40.4575ZM5.54199 40.3257H9.54199C9.54199 37.7607 10.2292 35.1405 11.5381 32.607L7.98438 30.771L4.43062 28.935C2.61625 32.4469 1.54199 36.3175 1.54199 40.3257H5.54199ZM7.98438 30.771L10.2366 27.4653C9.73826 27.1258 9.31778 26.7012 8.99123 26.1919L5.62402 28.3511L2.25682 30.5102C3.19059 31.9665 4.38414 33.1583 5.73217 34.0767L7.98438 30.771ZM5.62402 28.3511L8.99136 26.1921C7.63532 24.0771 8.18312 20.5198 11.3779 18.4712L9.21875 15.104L7.0596 11.7368C0.792778 15.7553 -1.87872 24.06 2.25668 30.51L5.62402 28.3511ZM9.21875 15.104L11.3778 18.4713C14.5482 16.4385 17.9879 17.3975 19.3591 19.4825L22.7012 17.2847L26.0432 15.0868C21.8732 8.74597 13.2901 7.74199 7.05974 11.7367L9.21875 15.104ZM22.7012 17.2847L24.3466 20.9306C27.8196 19.3632 31.6134 18.4741 35.4521 18.4741V14.4741V10.4741C30.3833 10.4741 25.4724 11.6455 21.0557 13.6388L22.7012 17.2847ZM35.4521 14.4741L35.4521 18.4741C39.2261 18.4742 42.9564 19.3326 46.3809 20.8507L48.002 17.1939L49.623 13.537C45.2648 11.6051 40.4346 10.4742 35.4522 10.4741L35.4521 14.4741ZM48.002 17.1939L51.4565 19.2103C51.8168 18.593 52.3015 18.0768 52.9062 17.689L50.7471 14.3218L48.5879 10.9546C46.871 12.0555 45.5168 13.5167 44.5474 15.1774L48.002 17.1939Z" fill="black" mask="url(#path-1-outside-1_43_112)"/>
<path d="M12.334 19.2226C13.8598 17.8347 16.966 17.7768 17.7834 18.9335C18.6008 20.0901 12.6065 27.319 11.2441 25.2949C9.8817 23.2708 10.4267 20.9575 12.334 19.2226Z" fill="black"/>
<path d="M57.6406 19.2226C56.1148 17.8347 53.0086 17.7768 52.1912 18.9335C51.3738 20.0901 57.3681 27.319 58.7305 25.2949C60.0929 23.2708 59.5479 20.9575 57.6406 19.2226Z" fill="black"/>
<path d="M31.9486 37.8337L33.1864 38.9765C33.8053 39.548 34.1766 40.1194 35.6619 40.1194C37.5185 40.1194 36.8996 40.1194 38.7563 38.4051C40.2416 37.0337 39.1689 36.1194 38.1374 36.1194H33.1863C31.3298 36.1194 31.1234 37.2622 31.9486 37.8337Z" fill="black"/>
<path d="M19.4352 37.1543C19.4657 37.4537 20.8458 35.0583 23.1019 34.9911C25.3579 34.9238 27.6356 37.2101 27.6051 36.9107C27.5746 36.6113 26.3269 34.1037 22.9267 34.251C19.1861 34.4131 19.4047 36.8549 19.4352 37.1543Z" fill="black" stroke="black"/>
<path d="M51.203 37.1543C51.1725 37.4537 49.7924 35.0583 47.5363 34.9911C45.2802 34.9238 43.0026 37.2101 43.0331 36.9107C43.0636 36.6113 44.3113 34.1037 47.7114 34.251C51.452 34.4131 51.2335 36.8549 51.203 37.1543Z" fill="black" stroke="black"/>
<ellipse cx="35.4873" cy="45.6194" rx="3" ry="4.5" fill="black"/>
<path d="M78.1772 25.1224L72.9354 18.7177L78.3817 17.8888L78.1772 25.1224Z" fill="black"/>
<path d="M70.3794 2.85267L69.8993 10.7608L74.5851 3.1372L70.3794 2.85267Z" fill="black"/>
<path d="M82.4478 12.7441L76.6561 11.533L79.5501 6.37207L82.4478 12.7441Z" fill="black"/>
<path d="M78.1772 25.1224L72.9354 18.7177L78.3817 17.8888L78.1772 25.1224Z" stroke="black" stroke-linejoin="round"/>
<path d="M70.3794 2.85267L69.8993 10.7608L74.5851 3.1372L70.3794 2.85267Z" stroke="black" stroke-linejoin="round"/>
<path d="M82.4478 12.7441L76.6561 11.533L79.5501 6.37207L82.4478 12.7441Z" stroke="black" stroke-linejoin="round"/>
</svg>
