<svg width="122" height="88" viewBox="0 0 122 88" fill="none" xmlns="http://www.w3.org/2000/svg">
<path d="M113 59C113 76.1208 91.309 87.5014 61.2094 87.5014C31.1099 87.5014 10.5 76.1208 10.5 59C10.5 41.8792 31.1099 29.5 61.2094 29.5C91.309 29.5 113 41.8792 113 59Z" fill="#78502C"/>
<path d="M110 48.9188C110 70.4222 86.7552 60.8989 61.5 60.8989C36.2448 60.8989 13 70.4222 13 48.9188C13 27.4154 36.2448 7 61.5 7C86.7552 7 110 27.4154 110 48.9188Z" fill="#78502C"/>
<ellipse cx="23.9478" cy="23.8957" rx="18" ry="16.2941" transform="rotate(-32.6691 23.9478 23.8957)" fill="#78502C"/>
<ellipse cx="98.328" cy="23.9478" rx="18" ry="16.2941" transform="rotate(-122.669 98.328 23.9478)" fill="#78502C"/>
</svg>
