<svg width="112" height="85" viewBox="0 0 112 85" fill="none" xmlns="http://www.w3.org/2000/svg">
<path d="M83.6921 3.87531C91.2674 -0.981988 101.759 1.86436 107.125 10.2327C112.418 18.4884 110.746 29.0333 103.426 33.9798C104.454 37.1009 105.028 40.3158 105.076 43.5589C107.031 46.783 108.08 50.317 108.08 54.0804C108.08 71.201 86.389 82.5813 56.2897 82.5814C26.1903 82.5814 5.57993 71.2011 5.57977 54.0804C5.57977 50.5718 6.44635 47.2627 8.08173 44.2181C8.08119 44.1455 8.07977 44.0726 8.07977 43.9993C8.07977 40.6054 8.66042 37.2387 9.73505 33.9749C7.3909 32.7795 5.35957 31.0059 3.87567 28.6917C-0.981774 21.1164 1.86369 10.6252 10.2321 5.25909C18.0893 0.220885 28.0205 1.49282 33.2253 7.93683C40.3032 4.25705 48.3342 2.08042 56.5798 2.08038C64.6967 2.08038 72.6046 4.1919 79.6013 7.76788C80.6847 6.25138 82.0533 4.92613 83.6921 3.87531Z" fill="#FFF0E4"/>
<path d="M83.6921 3.87531L82.8824 2.61259L82.8824 2.6126L83.6921 3.87531ZM107.125 10.2327L108.387 9.42306L108.387 9.42305L107.125 10.2327ZM103.426 33.9798L102.587 32.737L101.647 33.3718L102.002 34.4487L103.426 33.9798ZM105.076 43.5589L103.576 43.581L103.582 43.9883L103.793 44.3367L105.076 43.5589ZM108.08 54.0804L109.58 54.0804V54.0804H108.08ZM56.2897 82.5814V84.0814H56.2897L56.2897 82.5814ZM5.57977 54.0804H4.07977V54.0804L5.57977 54.0804ZM8.08173 44.2181L9.40316 44.9279L9.58454 44.5902L9.58168 44.2069L8.08173 44.2181ZM8.07977 43.9993H6.57977V43.9993L8.07977 43.9993ZM9.73505 33.9749L11.1598 34.444L11.5619 33.2228L10.4165 32.6386L9.73505 33.9749ZM3.87567 28.6917L2.61296 29.5014L2.61297 29.5014L3.87567 28.6917ZM10.2321 5.25909L9.42244 3.99639L9.42244 3.99639L10.2321 5.25909ZM33.2253 7.93683L32.0584 8.87933L32.829 9.83346L33.9172 9.26771L33.2253 7.93683ZM56.5798 2.08038V0.580383H56.5798L56.5798 2.08038ZM79.6013 7.76788L78.9186 9.10354L80.07 9.69204L80.8218 8.63988L79.6013 7.76788ZM83.6921 3.87531L84.5017 5.13802C91.2643 0.801851 100.865 3.25017 105.862 11.0424L107.125 10.2327L108.387 9.42305C102.652 0.478559 91.2705 -2.76583 82.8824 2.61259L83.6921 3.87531ZM107.125 10.2327L105.862 11.0424C110.79 18.7277 109.123 28.3195 102.587 32.737L103.426 33.9798L104.266 35.2226C112.368 29.7472 114.047 18.2491 108.387 9.42306L107.125 10.2327ZM103.426 33.9798L102.002 34.4487C102.985 37.4368 103.531 40.5012 103.576 43.581L105.076 43.5589L106.576 43.5368C106.526 40.1303 105.922 36.765 104.851 33.5109L103.426 33.9798ZM105.076 43.5589L103.793 44.3367C105.615 47.341 106.58 50.6079 106.58 54.0804H108.08H109.58C109.58 50.026 108.447 46.225 106.358 42.7811L105.076 43.5589ZM108.08 54.0804L106.58 54.0804C106.58 61.9019 101.65 68.6056 92.7564 73.4327C83.8559 78.2634 71.1756 81.0813 56.2897 81.0814L56.2897 82.5814L56.2897 84.0814C71.5031 84.0813 84.7177 81.2091 94.1874 76.0694C103.664 70.9263 109.58 63.3795 109.58 54.0804L108.08 54.0804ZM56.2897 82.5814V81.0814C41.4031 81.0814 29.0017 78.2632 20.3796 73.4419C11.7785 68.6323 7.07984 61.9358 7.07977 54.0804L5.57977 54.0804L4.07977 54.0804C4.07986 63.3457 9.68647 70.8997 18.9154 76.0604C28.1235 81.2094 41.0769 84.0814 56.2897 84.0814V82.5814ZM5.57977 54.0804H7.07977C7.07977 50.8276 7.88115 47.7614 9.40316 44.9279L8.08173 44.2181L6.76029 43.5083C5.01156 46.7639 4.07977 50.3161 4.07977 54.0804H5.57977ZM8.08173 44.2181L9.58168 44.2069C9.58093 44.106 9.57977 44.0697 9.57977 43.9993L8.07977 43.9993L6.57977 43.9993C6.57977 44.0755 6.58144 44.185 6.58177 44.2292L8.08173 44.2181ZM8.07977 43.9993H9.57977C9.57977 40.7775 10.1309 37.569 11.1598 34.444L9.73505 33.9749L8.31029 33.5058C7.18996 36.9084 6.57977 40.4333 6.57977 43.9993H8.07977ZM9.73505 33.9749L10.4165 32.6386C8.29736 31.558 6.47155 29.9611 5.13837 27.882L3.87567 28.6917L2.61297 29.5014C4.24759 32.0506 6.48443 34.001 9.0536 35.3112L9.73505 33.9749ZM3.87567 28.6917L5.13838 27.882C0.802006 21.1193 3.24961 11.5184 11.0418 6.5218L10.2321 5.25909L9.42244 3.99639C0.477769 9.73196 -2.76555 21.1134 2.61296 29.5014L3.87567 28.6917ZM10.2321 5.25909L11.0418 6.5218C18.3501 1.8355 27.4023 3.11466 32.0584 8.87933L33.2253 7.93683L34.3922 6.99433C28.6387 -0.129018 17.8284 -1.39373 9.42244 3.99639L10.2321 5.25909ZM33.2253 7.93683L33.9172 9.26771C40.8017 5.68851 48.5969 3.58042 56.5798 3.58038L56.5798 2.08038L56.5798 0.580383C48.0715 0.580417 39.8048 2.82559 32.5334 6.60595L33.2253 7.93683ZM56.5798 2.08038V3.58038C64.4377 3.58038 72.1132 5.62528 78.9186 9.10354L79.6013 7.76788L80.2839 6.43223C73.0961 2.75853 64.9557 0.580383 56.5798 0.580383V2.08038ZM79.6013 7.76788L80.8218 8.63988C81.7973 7.27443 83.0277 6.0832 84.5018 5.13801L83.6921 3.87531L82.8824 2.6126C81.0789 3.76906 79.5721 5.22834 78.3808 6.89589L79.6013 7.76788Z" fill="#78502C"/>
</svg>
